<svg xmlns="http://www.w3.org/2000/svg" width="30" height="20" viewBox="0 0 30 20"><defs><style>.a{fill:#152a75;}</style></defs><g transform="translate(30 105.333) rotate(180)"><g transform="translate(0 85.333)"><path class="a" d="M29.817,94.891l-9.375-9.375a.625.625,0,0,0-1.067.442v1.25a.625.625,0,0,0,.183.442l6.433,6.433H.625A.625.625,0,0,0,0,94.708v1.25a.625.625,0,0,0,.625.625H25.991l-6.433,6.433a.625.625,0,0,0-.183.442v1.25a.625.625,0,0,0,1.067.442l9.375-9.375A.625.625,0,0,0,29.817,94.891Z" transform="translate(0 -85.333)"/></g></g></svg>